<svg width="234" height="234" viewBox="0 0 234 234" fill="none" xmlns="http://www.w3.org/2000/svg">
<g clip-path="url(#clip0_582_3231)">
<rect width="234" height="234" rx="117" fill="#211C56"/>
<path fill-rule="evenodd" clip-rule="evenodd" d="M26.1846 117.431V148.372H35.5648V142.345L38.1114 140.053L39.4272 142.006L44.1809 148.372H55.8106L44.9025 134.536L54.1297 126.585V138.016C54.1297 140.676 54.54 142.798 55.3606 144.383C56.1812 145.967 57.3413 147.099 58.841 147.778C60.3407 148.457 62.0951 148.797 64.1041 148.797C65.7735 148.797 67.3157 148.457 68.7305 147.778C70.1736 147.071 71.2205 146.151 71.8713 145.019H72.2533L72.6353 148.372H81.6335V125.283H72.2533V136.785C72.2533 137.747 72.0553 138.61 71.6591 139.374C71.2913 140.138 70.7537 140.732 70.0462 141.157C69.3388 141.581 68.4758 141.794 67.4572 141.794C66.4102 141.794 65.5896 141.567 64.9954 141.114C64.4295 140.633 64.0333 139.983 63.807 139.162C63.6089 138.313 63.5099 137.365 63.5099 136.318V125.283H55.6408H54.1297H43.9687L38.3236 130.419L35.5648 133.093V117.431H26.1846ZM82.3749 148.372V125.283H91.3306L91.7551 128.678H92.1795C92.9152 127.433 93.9338 126.485 95.2355 125.835C96.5654 125.184 98.1075 124.858 99.8619 124.858C101.729 124.858 103.356 125.24 104.743 126.004C106.129 126.74 107.176 127.9 107.884 129.485H108.308C109.242 127.787 110.445 126.599 111.916 125.919C113.387 125.212 115.071 124.858 116.967 124.858C118.948 124.858 120.645 125.255 122.06 126.047C123.503 126.811 124.607 127.999 125.371 129.612C125.901 130.712 126.248 132.038 126.41 133.589C126.706 132.417 127.168 131.361 127.796 130.419C129.013 128.608 130.682 127.235 132.804 126.301C134.955 125.339 137.431 124.858 140.232 124.858C143.316 124.858 145.92 125.41 148.042 126.514C150.192 127.617 151.791 129.216 152.838 131.31C153.337 132.308 153.692 133.407 153.901 134.604V117.431H163.282V133.093L166.04 130.419L171.686 125.283H183.358L172.619 134.536L183.527 148.372H171.898L167.144 142.006L165.828 140.053L163.282 142.345V148.372H153.901V142.009C153.566 143.097 152.943 144.086 152.032 144.977C150.787 146.194 149.16 147.142 147.151 147.821C145.141 148.471 142.864 148.797 140.317 148.797C137.403 148.797 134.87 148.33 132.72 147.396C130.597 146.462 128.942 145.118 127.754 143.364C127.217 142.553 126.805 141.664 126.517 140.696V148.372H117.137V136.955C117.137 135.965 117.038 135.087 116.839 134.323C116.641 133.559 116.274 132.965 115.736 132.541C115.227 132.088 114.477 131.862 113.486 131.862C112.553 131.862 111.76 132.06 111.11 132.456C110.459 132.852 109.964 133.404 109.624 134.111C109.284 134.79 109.115 135.583 109.115 136.488V148.372H99.777V136.87C99.777 135.908 99.6779 135.059 99.4799 134.323C99.3101 133.559 98.9564 132.965 98.4188 132.541C97.8811 132.088 97.103 131.862 96.0843 131.862C95.1506 131.862 94.3583 132.074 93.7075 132.498C93.085 132.894 92.6039 133.446 92.2644 134.154C91.9248 134.833 91.7551 135.611 91.7551 136.488V148.372H82.3749ZM135.394 138.907H153.901V140.775H145.325C145.071 141.313 144.505 141.765 143.628 142.133C142.75 142.473 141.732 142.642 140.572 142.642C139.496 142.642 138.577 142.501 137.813 142.218C137.049 141.907 136.455 141.468 136.03 140.902C135.634 140.336 135.422 139.671 135.394 138.907ZM135.236 134.026H144.808C144.717 133.528 144.536 133.076 144.264 132.668C143.925 132.159 143.415 131.763 142.736 131.48C142.086 131.197 141.237 131.055 140.19 131.055C139.256 131.055 138.435 131.183 137.728 131.437C137.021 131.664 136.44 132.031 135.988 132.541C135.644 132.953 135.394 133.448 135.236 134.026ZM185.26 147.99C186.647 148.528 188.175 148.797 189.844 148.797C191.514 148.797 193.042 148.5 194.428 147.906C195.815 147.311 196.862 146.491 197.569 145.444H197.909V148.372H207.289V125.283H198.376L198.121 128.296H197.781C197.357 127.617 196.777 127.037 196.041 126.556C195.334 126.047 194.471 125.651 193.452 125.368C192.433 125.085 191.231 124.943 189.844 124.943C187.609 124.943 185.642 125.424 183.945 126.386C182.275 127.348 180.973 128.721 180.04 130.503C179.106 132.286 178.639 134.408 178.639 136.87C178.639 138.681 178.908 140.322 179.445 141.794C179.983 143.265 180.747 144.524 181.737 145.571C182.728 146.618 183.902 147.424 185.26 147.99ZM195.532 141.199C194.796 141.595 193.905 141.794 192.858 141.794C191.896 141.794 191.047 141.61 190.311 141.242C189.604 140.874 189.052 140.322 188.656 139.586C188.26 138.851 188.062 137.945 188.062 136.87C188.062 135.795 188.26 134.889 188.656 134.154C189.08 133.418 189.646 132.866 190.354 132.498C191.089 132.13 191.924 131.947 192.858 131.947C193.905 131.947 194.796 132.145 195.532 132.541C196.296 132.937 196.876 133.489 197.272 134.196C197.668 134.875 197.866 135.682 197.866 136.615V137.125C197.866 138.03 197.668 138.837 197.272 139.544C196.876 140.251 196.296 140.803 195.532 141.199ZM32.4663 177.958C33.5133 178.411 34.73 178.637 36.1165 178.637H43.8413V172.802C43.9911 173.086 44.1544 173.362 44.3311 173.629C45.5195 175.383 47.1748 176.727 49.297 177.661C51.4475 178.595 53.98 179.062 56.8945 179.062C59.4412 179.062 61.719 178.736 63.728 178.086C65.737 177.406 67.3641 176.459 68.6091 175.242C69.5189 174.353 70.1416 173.365 70.4772 172.28C71.0094 173.657 71.7457 174.842 72.686 175.836C73.6764 176.883 74.8507 177.689 76.2089 178.255C77.5954 178.793 79.1234 179.062 80.7928 179.062C82.4623 179.062 83.9903 178.765 85.3768 178.17C86.7633 177.576 87.8103 176.756 88.5177 175.709H88.8572V178.637H98.2373V155.548H89.3241L89.0694 158.561H88.7299C88.3054 157.882 87.7254 157.302 86.9897 156.821C86.2823 156.312 85.4192 155.916 84.4006 155.633C83.3819 155.35 82.1793 155.208 80.7928 155.208C78.5575 155.208 76.5909 155.689 74.8931 156.651C73.2237 157.613 71.922 158.986 70.9883 160.768C70.5992 161.511 70.2912 162.313 70.0642 163.174C69.8853 162.615 69.6691 162.082 69.4155 161.575C68.3686 159.481 66.7698 157.882 64.6193 156.779C62.4971 155.675 59.8939 155.123 56.8096 155.123C54.0083 155.123 51.5324 155.604 49.3819 156.566C47.2597 157.5 45.5903 158.873 44.3735 160.683C44.1804 160.973 44.003 161.274 43.8413 161.585V155.548H38.366V148.502L29.1557 150.242V155.548H25.2084V162.551H29.1557V172.271C29.1557 173.714 29.4386 174.902 30.0046 175.836C30.5988 176.77 31.4194 177.477 32.4663 177.958ZM69.7098 169.172C69.7905 169.82 69.9113 170.443 70.0721 171.04H61.9029C61.6483 171.577 61.0823 172.03 60.2052 172.398C59.328 172.738 58.3093 172.907 57.1492 172.907C56.0739 172.907 55.1543 172.766 54.3903 172.483C53.6263 172.172 53.0321 171.733 52.6077 171.167C52.2115 170.601 51.9993 169.936 51.971 169.172H69.7098ZM43.4033 162.551H38.366V169.172C38.366 169.767 38.4934 170.177 38.748 170.403C39.031 170.63 39.4837 170.743 40.1062 170.743H43.0317C42.7378 169.676 42.5909 168.516 42.5909 167.262C42.5909 165.505 42.8617 163.934 43.4033 162.551ZM51.8131 164.291H61.3851C61.2946 163.793 61.1135 163.34 60.8418 162.933C60.5023 162.424 59.9929 162.028 59.3138 161.745C58.663 161.462 57.8141 161.32 56.7672 161.32C55.8334 161.32 55.0128 161.447 54.3054 161.702C53.598 161.929 53.018 162.296 52.5652 162.806C52.222 163.218 51.9713 163.713 51.8131 164.291ZM83.8064 172.058C84.8533 172.058 85.7447 171.86 86.4803 171.464C87.2443 171.068 87.8244 170.516 88.2206 169.809C88.6167 169.102 88.8148 168.295 88.8148 167.39V166.88C88.8148 165.947 88.6167 165.14 88.2206 164.461C87.8244 163.754 87.2443 163.202 86.4803 162.806C85.7447 162.41 84.8533 162.211 83.8064 162.211C82.8726 162.211 82.0379 162.395 81.3022 162.763C80.5948 163.131 80.0288 163.683 79.6044 164.419C79.2083 165.154 79.0102 166.06 79.0102 167.135C79.0102 168.21 79.2083 169.116 79.6044 169.851C80.0006 170.587 80.5523 171.139 81.2597 171.507C81.9954 171.875 82.8443 172.058 83.8064 172.058ZM98.9264 155.548V178.637H108.307V166.753C108.307 165.876 108.476 165.098 108.816 164.419C109.155 163.711 109.636 163.159 110.259 162.763C110.91 162.339 111.702 162.127 112.636 162.127C113.654 162.127 114.433 162.353 114.97 162.806C115.508 163.23 115.862 163.824 116.031 164.588C116.229 165.324 116.328 166.173 116.328 167.135V178.637H125.666V166.753C125.666 165.848 125.836 165.055 126.175 164.376C126.515 163.669 127.01 163.117 127.661 162.721C128.312 162.325 129.104 162.127 130.038 162.127C131.028 162.127 131.778 162.353 132.287 162.806C132.825 163.23 133.193 163.824 133.391 164.588C133.589 165.352 133.688 166.23 133.688 167.22V178.637H143.068V166.031C143.068 163.513 142.686 161.462 141.922 159.877C141.158 158.264 140.055 157.076 138.612 156.312C137.197 155.519 135.499 155.123 133.518 155.123C131.622 155.123 129.939 155.477 128.467 156.184C126.996 156.864 125.793 158.052 124.86 159.75H124.435C123.728 158.165 122.681 157.005 121.294 156.269C119.908 155.505 118.281 155.123 116.413 155.123C114.659 155.123 113.117 155.449 111.787 156.1C110.485 156.75 109.467 157.698 108.731 158.943H108.307L107.882 155.548H98.9264Z" fill="white"/>
<circle cx="179.375" cy="87.1043" r="31.0032" transform="rotate(-180 179.375 87.1043)" fill="#EE4037"/>
<ellipse opacity="0.7" cx="117.369" cy="87.1043" rx="31.0031" ry="31.0032" transform="rotate(-180 117.369 87.1043)" fill="#EE4037"/>
<circle opacity="0.4" cx="55.3634" cy="87.1043" r="31.0032" transform="rotate(-180 55.3634 87.1043)" fill="#EE4037"/>
</g>
<defs>
<clipPath id="clip0_582_3231">
<rect width="234" height="234" rx="117" fill="white"/>
</clipPath>
</defs>
</svg>
